<?xml version="1.0" encoding="UTF-8"?>
<svg version="1.1" xmlns="http://www.w3.org/2000/svg" width="600" height="416">
<path d="M0 0 C1.04285156 0.33773437 2.08570313 0.67546875 3.16015625 1.0234375 C11.03508557 3.73733067 18.50189029 7.39766929 26 11 C26 11.66 26 12.32 26 13 C26.54140625 13.08378906 27.0828125 13.16757812 27.640625 13.25390625 C30.81747823 14.25850719 33.06603503 15.97422933 35.75 17.9375 C36.73484375 18.64777344 37.7196875 19.35804687 38.734375 20.08984375 C39.48203125 20.72019531 40.2296875 21.35054687 41 22 C41 22.66 41 23.32 41 24 C41.99 24.33 42.98 24.66 44 25 C50.69736376 32.67152576 54.7373382 41.06468088 54.33984375 51.3359375 C53.02586066 61.63635668 48.33522467 69.00554982 42 77 C41.34 77.99 40.68 78.98 40 80 C39.34 80 38.68 80 38 80 C37.731875 80.639375 37.46375 81.27875 37.1875 81.9375 C36 84 36 84 33 85 C33 85.66 33 86.32 33 87 C32.34 87 31.68 87 31 87 C31 87.66 31 88.32 31 89 C28.79067928 90.8668143 26.57550405 92.59953175 24.25 94.3125 C23.54133789 94.8386792 22.83267578 95.3648584 22.10253906 95.90698242 C0.70942767 111.58647749 -22.09848477 124.05501998 -46.12353516 135.12792969 C-48.05063966 136.02353433 -49.96934374 136.93532876 -51.88671875 137.8515625 C-58.36457619 140.93614016 -64.80702853 143.8241278 -71.6328125 146.078125 C-74.29839635 147.11620716 -76.57075722 148.49655984 -79 150 C-82.62255442 151.67194819 -86.20455765 153.09253639 -90 154.3125 C-93.91050865 155.58341531 -97.69399722 157.06916778 -101.5 158.625 C-112.5305737 163.11186706 -123.7792843 167.01998752 -135 171 C-135.96357422 171.34272949 -136.92714844 171.68545898 -137.91992188 172.03857422 C-140.59121379 172.98758582 -143.26393961 173.93240022 -145.9375 174.875 C-146.71053467 175.14884521 -147.48356934 175.42269043 -148.2800293 175.70483398 C-152.95342499 177.34217251 -157.65600499 178.81946902 -162.40454102 180.22314453 C-166.95628082 181.58554093 -171.47588882 183.04898955 -176 184.5 C-186.66092106 187.919259 -197.37529406 191.12235685 -208.125 194.25 C-209.15254395 194.54938477 -210.18008789 194.84876953 -211.23876953 195.15722656 C-215.58804492 196.42441632 -219.93758906 197.69068249 -224.28710938 198.95703125 C-227.48316685 199.88769868 -230.67908604 200.81883987 -233.875 201.75 C-235.32543701 202.17200684 -235.32543701 202.17200684 -236.80517578 202.60253906 C-242.87909444 204.37229692 -248.94317895 206.17258185 -255 208 C-254.27039063 208.15855469 -253.54078125 208.31710938 -252.7890625 208.48046875 C-243.87871997 210.47154529 -235.11390185 212.85937358 -226.33056641 215.34277344 C-222.55697439 216.40693745 -218.77836363 217.45292892 -215 218.5 C-210.39230048 219.77733707 -205.7859357 221.0589429 -201.18359375 222.35546875 C-200.38888672 222.57847656 -199.59417969 222.80148438 -198.77539062 223.03125 C-197.27483655 223.45245816 -195.77478906 223.87547763 -194.27539062 224.30078125 C-190.68380938 225.30682642 -187.09552784 226.21700572 -183.44921875 227.00390625 C-179.36196482 227.89144683 -175.37197815 229.02272656 -171.375 230.25 C-164.53863905 232.30630947 -157.66383467 234.16023609 -150.75 235.9375 C-129.63413811 241.38111923 -108.71997781 247.59094622 -87.921875 254.140625 C-85.65369789 254.80773591 -83.40634779 255.39187661 -81.109375 255.94140625 C-78.37517565 256.60524141 -75.94133973 257.39477352 -73.28125 258.38671875 C-65.16915711 261.21965248 -65.16915711 261.21965248 -57.00390625 259.5703125 C-53.54377162 257.716822 -50.30029312 255.54814714 -47.05615234 253.34326172 C-43.62862254 251.10409418 -40.00838843 249.2542681 -36.375 247.375 C-35.67383057 247.0047168 -34.97266113 246.63443359 -34.25024414 246.25292969 C-30.80673098 244.43697548 -27.34612817 242.66495919 -23.8515625 240.94921875 C-23.2013916 240.62969238 -22.5512207 240.31016602 -21.88134766 239.98095703 C-20.11177689 239.11706848 -18.33729209 238.26326654 -16.5625 237.41015625 C-13.89150364 236.25633904 -13.89150364 236.25633904 -13 234 C-12.34 234 -11.68 234 -11 234 C-10.67 232.35 -10.34 230.7 -10 229 C-10.64324219 229.3609375 -11.28648437 229.721875 -11.94921875 230.09375 C-19.14403909 233.78866487 -25.91331306 235.5551321 -34 234 C-37.65842595 231.63428601 -38.80796061 230.50628567 -40.375 226.375 C-42.14899209 217.26850728 -39.72250059 208.02615493 -35.375 200 C-27.49054711 190.04069109 -18.85572222 183.00022378 -6 181 C-1.20527366 180.71944787 3.57333753 180.7205118 8.375 180.75 C9.65761719 180.74226562 10.94023437 180.73453125 12.26171875 180.7265625 C13.48246094 180.72914063 14.70320313 180.73171875 15.9609375 180.734375 C17.07259277 180.73663086 18.18424805 180.73888672 19.32958984 180.74121094 C22 181 22 181 24 183 C23.73019964 188.48594071 22.85269179 191.310453 20 196 C19.1471059 198.08812003 18.33638639 200.19382743 17.5625 202.3125 C15.89315834 206.75906472 14.1149679 211.00595564 11.9140625 215.2109375 C10.45062319 218.07527597 9.23673391 221.03183862 8 224 C20.9928091 219.24546446 33.3548658 213.47826011 45.609375 207.06640625 C48 206 48 206 51 206 C51 205.34 51 204.68 51 204 C51.66 204 52.32 204 53 204 C53 203.34 53 202.68 53 202 C53.66 202 54.32 202 55 202 C55.33 201.01 55.66 200.02 56 199 C61.3633778 195.07324125 67.65461579 192.79563454 74 191 C74.93392578 190.71962891 74.93392578 190.71962891 75.88671875 190.43359375 C78.61713486 189.87337898 81.21385248 189.82991342 84 189.8125 C85.03125 189.79832031 86.0625 189.78414062 87.125 189.76953125 C90.95646296 190.07667298 93.05198918 191.05198918 95.75 193.75 C97.47832843 196.86099117 97.54382985 198.465106 97 202 C95.6029372 204.8665659 94.05093438 207.55130865 92 210 C91.34 210 90.68 210 90 210 C90 210.66 90 211.32 90 212 C80.80799924 218.71437252 69.88595529 217.92338066 59 218 C58.716966 222.40398467 58.716966 222.40398467 60.5625 226.25 C65.88033912 230.06793578 71.0957345 230.35586007 77.37890625 229.54296875 C85.81685146 227.79501885 92.74398523 223.8020078 99.25 218.25 C102 216 102 216 104 216 C104.33 215.01 104.66 214.02 105 213 C105.66 213 106.32 213 107 213 C107.226875 212.175 107.45375 211.35 107.6875 210.5 C108.98564967 207.03826755 110.56524821 204.36502649 112.56640625 201.2890625 C114.77600877 197.76092332 116.70613942 194.08798721 118.66796875 190.41796875 C121.58177465 185.12868472 121.58177465 185.12868472 124.4375 184.25 C127 184 127 184 130 185 C131.6875 188.0625 131.6875 188.0625 133 191 C135.69466136 190.52447153 138.13236498 189.95019552 140.69921875 188.984375 C144.47869786 187.8572404 147.74752125 187.66420377 151.6875 187.625 C152.99074219 187.59664062 154.29398438 187.56828125 155.63671875 187.5390625 C159 188 159 188 160.9296875 189.78125 C162.56240061 193.16585236 162.6427219 196.36722403 162 200 C159.98497111 203.75212276 158.54533858 205.63644095 155 208 C152.375 208.1875 152.375 208.1875 150 208 C149 207 149 207 148.90234375 204.93359375 C148.91974609 203.69802734 148.91974609 203.69802734 148.9375 202.4375 C148.94652344 201.61121094 148.95554687 200.78492188 148.96484375 199.93359375 C148.98224609 198.97646484 148.98224609 198.97646484 149 198 C140.26462597 199.44811013 133.92892083 203.62641011 128 210 C127.34 210 126.68 210 126 210 C125.71125 210.598125 125.4225 211.19625 125.125 211.8125 C124 214 124 214 122 217 C121.34 217 120.68 217 120 217 C119.34 218.65 118.68 220.3 118 222 C117.34 222 116.68 222 116 222 C115.73058594 222.72832031 115.46117187 223.45664063 115.18359375 224.20703125 C114.02704406 226.93618316 112.70504088 229.22577842 111.0625 231.6875 C110.55847656 232.45449219 110.05445313 233.22148437 109.53515625 234.01171875 C108 236 108 236 105 238 C101.5 238.375 101.5 238.375 98 238 C96.28125 235.9765625 96.28125 235.9765625 95 234 C94.32839844 234.3609375 93.65679687 234.721875 92.96484375 235.09375 C85.33582751 238.63755109 78.66363399 239.54439708 70.3125 239.625 C69.35142334 239.64755859 68.39034668 239.67011719 67.40014648 239.69335938 C60.31993958 239.62056143 54.93958601 237.88461435 49 234 C45.55287776 230.38472545 44.8233277 227.62117222 44.41015625 222.79296875 C44.29039429 221.44561646 44.29039429 221.44561646 44.16821289 220.07104492 C44.11270264 219.3876001 44.05719238 218.70415527 44 218 C42.29070312 218.90878906 42.29070312 218.90878906 40.546875 219.8359375 C38.94820817 220.68284216 37.34922434 221.52914857 35.75 222.375 C34.90695312 222.82109619 34.06390625 223.26719238 33.1953125 223.72680664 C28.62012193 226.13544541 24.02791576 228.49810666 19.390625 230.78515625 C18.48860352 231.23004395 17.58658203 231.67493164 16.65722656 232.13330078 C14.91183151 232.98996197 13.16384746 233.84137209 11.41308594 234.68701172 C10.61676758 235.07775879 9.82044922 235.46850586 9 235.87109375 C8.29875 236.21068115 7.5975 236.55026855 6.875 236.90014648 C1.964813 239.78040592 0.60196578 243.97753899 -1.3125 249.125 C-1.6122876 249.91310059 -1.9120752 250.70120117 -2.22094727 251.51318359 C-5.28521103 259.62594088 -8.16766145 267.80385547 -11 276 C-10.41210693 276.15557373 -9.82421387 276.31114746 -9.21850586 276.47143555 C1.42625796 279.30000516 11.97600035 282.20405689 22.390625 285.796875 C25.56921275 286.85640425 28.74934583 287.8089484 31.97167969 288.72045898 C39.59948265 290.88036349 47.0952442 293.33664341 54.5625 296 C55.47845947 296.32009033 56.39441895 296.64018066 57.33813477 296.9699707 C63.03866808 299.03895262 68.004947 301.55768987 73 305 C72.67 305.99 72.34 306.98 72 308 C59.73563361 306.98089792 48.42038242 304.11625486 36.61962891 300.73291016 C32.82945145 299.67250822 29.01274413 298.73667384 25.1875 297.8125 C20.42507868 296.64244319 15.80690029 295.33652354 11.18359375 293.7109375 C7.60330487 292.54526205 3.94257588 291.71534421 0.28515625 290.828125 C-5.51765675 289.36534693 -11.25509692 287.67418034 -17 286 C-17.0721875 286.64710938 -17.144375 287.29421875 -17.21875 287.9609375 C-18.31721999 292.23398578 -20.35086323 295.79139389 -22.5 299.625 C-22.94561279 300.42317139 -23.39122559 301.22134277 -23.8503418 302.04370117 C-32.86631059 317.80928609 -45.4207855 331.25888002 -63 337 C-81.31151489 340.53419055 -100.63264315 339.16571983 -117 330 C-117 329.34 -117 328.68 -117 328 C-117.5775 327.773125 -118.155 327.54625 -118.75 327.3125 C-122.56083774 325.08951132 -124.61929664 322.14211008 -126 318 C-126.48188026 311.61508657 -125.00382657 307.7575181 -121.265625 302.61328125 C-112.27743874 292.3535105 -100.07070216 283.36099952 -88 277 C-87.01 277 -86.02 277 -85 277 C-85 276.34 -85 275.68 -85 275 C-83.35546875 273.7109375 -83.35546875 273.7109375 -81.1875 272.375 C-80.47980469 271.92898438 -79.77210938 271.48296875 -79.04296875 271.0234375 C-77 270 -77 270 -74 270 C-74 269.34 -74 268.68 -74 268 C-74.804375 267.87044922 -74.804375 267.87044922 -75.625 267.73828125 C-81.96699918 266.601311 -87.99814417 264.84335643 -94.11328125 262.8527832 C-98.04652767 261.57850165 -101.97826332 260.4888785 -105.99560547 259.51367188 C-110.050656 258.47447257 -114.01716797 257.1389986 -118 255.85546875 C-121.96280356 254.59387309 -125.92813224 253.4962049 -129.96875 252.51367188 C-134.23331212 251.43522972 -138.43268744 250.12132345 -142.64453125 248.85546875 C-146.71252504 247.64325122 -150.78652387 246.53292927 -154.90917969 245.52294922 C-158.91585498 244.52081255 -162.89280351 243.40712186 -166.875 242.3125 C-173.07287417 240.6139603 -179.27253748 238.92317946 -185.48046875 237.26171875 C-186.56344238 236.97184082 -187.64641602 236.68196289 -188.76220703 236.38330078 C-190.97277312 235.79165793 -193.18338554 235.20018817 -195.39404297 234.60888672 C-201.27406012 233.02851783 -207.13219022 231.39337683 -212.97436523 229.67871094 C-223.03055332 226.72747004 -233.14966157 224.2604937 -243.38476562 222.00366211 C-244.43341797 221.77042236 -245.48207031 221.53718262 -246.5625 221.296875 C-247.95662109 220.99281738 -247.95662109 220.99281738 -249.37890625 220.68261719 C-252.03486532 219.99091995 -254.46677608 219.04821217 -257 218 C-258.65610189 217.58079921 -260.32384161 217.20499368 -262 216.875 C-263.2375 216.62363281 -263.2375 216.62363281 -264.5 216.3671875 C-265.325 216.24601563 -266.15 216.12484375 -267 216 C-267.845625 215.85820312 -268.69125 215.71640625 -269.5625 215.5703125 C-272.24585158 215.77535659 -272.24585158 215.77535659 -274.015625 218.3828125 C-276.55192963 222.72604358 -278.63571243 227.31635143 -280.75 231.875 C-281.63680829 233.76228898 -282.52484124 235.64900297 -283.4140625 237.53515625 C-283.85137695 238.46344238 -284.28869141 239.39172852 -284.73925781 240.34814453 C-286.48807479 244.02662052 -288.29457014 247.67407988 -290.125 251.3125 C-290.44766846 251.95453369 -290.77033691 252.59656738 -291.1027832 253.25805664 C-292.06685901 255.17288225 -293.03302606 257.08663647 -294 259 C-298.67753904 268.25670219 -303.23348674 277.55666332 -307.64868164 286.94165039 C-309.99302393 291.91189694 -312.39775152 296.84477009 -314.875 301.75 C-324.19482629 320.24410365 -332.82543683 339.05623197 -341.32250977 357.93896484 C-341.76135498 358.91043457 -342.2002002 359.8819043 -342.65234375 360.8828125 C-343.04929443 361.76340332 -343.44624512 362.64399414 -343.85522461 363.55126953 C-348.05054974 372.52527487 -348.05054974 372.52527487 -351 374 C-355.05142119 374.25860135 -356.54337669 374.30441554 -360 372 C-359.74080766 366.72975576 -359.05578549 362.68879254 -356.78515625 357.91015625 C-356.33454834 356.94956299 -355.88394043 355.98896973 -355.41967773 354.99926758 C-354.95118408 354.00950928 -354.48269043 353.01975098 -354 352 C-353.11449106 350.06894254 -352.2316784 348.1366464 -351.3515625 346.203125 C-346.93154669 336.54807777 -342.504726 326.89710742 -338 317.28125 C-336.3248372 313.7018423 -334.66182725 310.11686741 -333 306.53125 C-327.39373748 294.43499944 -321.77492544 282.34596706 -316.04296875 270.30859375 C-314.67498365 267.43316562 -313.3244419 264.55050669 -311.98828125 261.66015625 C-308.38131646 253.87438001 -304.58856057 246.24592732 -300.51586914 238.69311523 C-295.66861664 229.63058714 -291.35697932 220.305198 -287 211 C-291.95 210.01 -296.9 209.02 -302 208 C-300.71875 199.03125 -300.71875 199.03125 -299 197 C-293.65457844 195.36364646 -289.94342773 196.37971707 -284.91796875 198.30859375 C-283.02621734 199.11304217 -283.02621734 199.11304217 -281 199 C-276.23516916 189.58718703 -271.58985886 180.1308716 -267.14672852 170.5612793 C-265.296282 166.60630394 -263.35923404 162.77130111 -261.15185547 158.9987793 C-258.48262509 154.36694608 -255.98136609 149.6389308 -253.4375 144.9375 C-252.86064453 143.87466797 -252.28378906 142.81183594 -251.68945312 141.71679688 C-251.13064453 140.68490234 -250.57183594 139.65300781 -249.99609375 138.58984375 C-249.49263428 137.66034912 -248.9891748 136.73085449 -248.47045898 135.77319336 C-247.43091786 133.81268404 -246.41908712 131.83736266 -245.42724609 129.85229492 C-243.80593373 126.61216624 -242.01166509 123.50522413 -240.1875 120.375 C-237.0850619 115.00487643 -234.22514072 109.56150298 -231.4921875 103.9921875 C-228.79772073 98.5891468 -225.88283479 93.30416314 -223 88 C-221.85307789 85.87558745 -220.70724632 83.75058578 -219.5625 81.625 C-218.98757812 80.55765625 -218.41265625 79.4903125 -217.8203125 78.390625 C-216.19608096 75.36523235 -214.57873465 72.33634731 -212.96533203 69.30517578 C-211.6271936 66.79227258 -210.28519934 64.28143589 -208.94335938 61.77050781 C-208.04607892 60.08648145 -207.1556632 58.39880273 -206.265625 56.7109375 C-205.74484375 55.73382813 -205.2240625 54.75671875 -204.6875 53.75 C-204.23761719 52.89921875 -203.78773438 52.0484375 -203.32421875 51.171875 C-201.49868471 48.17778378 -200.29774538 46.32385803 -196.80859375 45.453125 C-196.02613281 45.38609375 -195.24367187 45.3190625 -194.4375 45.25 C-193.65246094 45.17265625 -192.86742187 45.0953125 -192.05859375 45.015625 C-190 45 -190 45 -188 46 C-187.48983734 52.27249169 -189.14883825 56.49912247 -191.8125 62.125 C-192.16892578 62.91003906 -192.52535156 63.69507812 -192.89257812 64.50390625 C-194.72633374 68.49442765 -196.731236 72.23727768 -199 76 C-199.86909712 77.60990446 -200.72420736 79.22742481 -201.56640625 80.8515625 C-202.04682373 81.77573975 -202.52724121 82.69991699 -203.0222168 83.65209961 C-203.78465698 85.1236853 -203.78465698 85.1236853 -204.5625 86.625 C-205.6430273 88.70192795 -206.72375948 90.77874932 -207.8046875 92.85546875 C-208.34319336 93.89106934 -208.88169922 94.92666992 -209.43652344 95.99365234 C-220.07665223 116.45313797 -220.07665223 116.45313797 -225.625 126.1875 C-228.94477964 132.01355071 -232.02159934 137.92285645 -234.98535156 143.93701172 C-237.37143136 148.77146798 -239.84293104 153.55293869 -242.375 158.3125 C-242.93054565 159.35688232 -242.93054565 159.35688232 -243.49731445 160.42236328 C-244.26402165 161.86246512 -245.03103568 163.30240364 -245.79833984 164.7421875 C-251.66352278 175.76234431 -257.49732087 186.7933242 -263 198 C-262.06285156 197.72027344 -261.12570312 197.44054687 -260.16015625 197.15234375 C-252.3334592 194.82863869 -244.49227658 192.5731495 -236.62280273 190.39819336 C-227.51599772 187.87966854 -218.50334314 185.27421751 -209.5703125 182.19140625 C-204.65998682 180.55284024 -199.69695229 179.11575952 -194.71875 177.69873047 C-191.05119143 176.64571257 -187.52366013 175.46087688 -184 174 C-182.39923358 173.53310979 -180.79769025 173.06863292 -179.19140625 172.62109375 C-170.63066334 170.19478694 -162.21941303 167.43118282 -153.875 164.34375 C-150.57619545 163.15870233 -147.23221733 162.15885324 -143.875 161.15234375 C-137.12229784 159.09234465 -130.56955073 156.64057489 -124 154.0625 C-121.83333333 153.22005208 -119.66666667 152.37760417 -117.5 151.53515625 C-116.4387793 151.12040039 -115.37755859 150.70564453 -114.28417969 150.27832031 C-109.79761814 148.53198993 -105.30013234 146.81451824 -100.80175781 145.09887695 C-97.69769248 143.88143202 -94.66876776 142.54447437 -91.63671875 141.16015625 C-88.71945039 139.87655817 -85.77394868 138.67718317 -82.82080078 137.47900391 C-76.51222467 134.91874502 -70.30142612 132.32268591 -64.2734375 129.140625 C-61.9120675 127.95588267 -59.50255997 126.92785636 -57.07080078 125.89746094 C-42.57455908 119.61495864 -28.66532763 112.37586324 -15.12841797 104.24804688 C-12.89748022 102.93988517 -10.63393583 101.70708608 -8.359375 100.4765625 C-4.49301793 98.34475541 -1.10220296 95.96970205 2.375 93.25 C7.68786127 89.10404624 7.68786127 89.10404624 11 88 C11 87.34 11 86.68 11 86 C11.639375 85.896875 12.27875 85.79375 12.9375 85.6875 C13.9584375 85.3471875 13.9584375 85.3471875 15 85 C15.33 84.01 15.66 83.02 16 82 C17.9375 79.8125 17.9375 79.8125 20 78 C20.66 78 21.32 78 22 78 C22 77.34 22 76.68 22 76 C23.16297473 74.87123041 24.32701622 73.7435414 25.49609375 72.62109375 C32.82730882 64.71861517 35.53894014 57.121658 35.3828125 46.44921875 C34.83808579 41.54111996 33.13570961 38.7018794 30 35 C29.278125 33.989375 28.55625 32.97875 27.8125 31.9375 C22.23619418 25.59145871 14.62336772 21.63893352 7.1875 17.875 C6.57285889 17.56256348 5.95821777 17.25012695 5.32495117 16.92822266 C-5.53237584 11.59894449 -16.87085891 7.9399732 -28.5625 4.9375 C-29.55953949 4.68028671 -29.55953949 4.68028671 -30.57672119 4.4178772 C-43.52196385 1.10674576 -56.49830758 -1.02181596 -69.76953125 -2.59863281 C-72.75299932 -2.96931158 -75.71725751 -3.40373802 -78.6875 -3.8671875 C-100.27820925 -7.08613192 -122.21633023 -6.92217993 -144 -7 C-144.91465027 -7.00342407 -145.82930054 -7.00684814 -146.77166748 -7.01037598 C-166.67608898 -7.05639567 -186.3084808 -6.21292947 -206.0625 -3.6875 C-206.85848602 -3.58685242 -207.65447205 -3.48620483 -208.47457886 -3.38250732 C-219.2102689 -1.99253198 -229.55415681 0.17717054 -240 3 C-240.90903076 3.23259521 -241.81806152 3.46519043 -242.75463867 3.70483398 C-265.60152972 9.58791932 -265.60152972 9.58791932 -285 22 C-285.99 22 -286.98 22 -288 22 C-288 22.66 -288 23.32 -288 24 C-292.03831982 28.12107228 -296.45955515 32.53616993 -302.5 32.625 C-306 32 -306 32 -308 30 C-308.15217811 26.80425977 -307.53783839 24.75139187 -305.671875 22.14453125 C-296.26197805 11.89592609 -282.70990629 5.97446971 -270.03344727 0.82763672 C-268.59872788 0.24368922 -267.16999988 -0.35508507 -265.74584961 -0.96435547 C-190.96297475 -32.29262172 -75.3785625 -24.55690827 0 0 Z M-16.765625 197.546875 C-18.2158035 198.9362748 -18.2158035 198.9362748 -18 201 C-18.66 201 -19.32 201 -20 201 C-20.79275148 202.4160599 -21.58415312 203.83287553 -22.375 205.25 C-22.81585938 206.03890625 -23.25671875 206.8278125 -23.7109375 207.640625 C-24.13632812 208.41921875 -24.56171875 209.1978125 -25 210 C-25.57041016 210.99193359 -25.57041016 210.99193359 -26.15234375 212.00390625 C-27.15521545 214.36550736 -27.23397668 216.13128237 -27.1875 218.6875 C-27.18105469 219.47511719 -27.17460937 220.26273438 -27.16796875 221.07421875 C-27.20733669 223.00699364 -27.20733669 223.00699364 -26 224 C-19.03769208 224 -14.99245902 220.599057 -10 216 C-8.22569761 214.06244461 -6.62501644 212.06820274 -5 210 C-4.34 209.67 -3.68 209.34 -3 209 C-0.18126521 204.65964731 2.61749263 200.18360007 1.8125 194.875 C1.544375 193.92625 1.27625 192.9775 1 192 C-6.25166892 189.99421924 -11.22760082 192.69497771 -16.765625 197.546875 Z M73.8125 201 C72.91144531 201.37125 72.01039063 201.7425 71.08203125 202.125 C70.39496094 202.41375 69.70789063 202.7025 69 203 C69 203.66 69 204.32 69 205 C68.01 205.33 67.02 205.66 66 206 C66.99 207.485 66.99 207.485 68 209 C73.33078472 209.52433948 76.66671976 209.44113431 81 206 C83.30671915 203.28450846 83.30671915 203.28450846 82.625 200.8125 C82.41875 200.214375 82.2125 199.61625 82 199 C78.70342144 199 76.83635572 199.74333269 73.8125 201 Z M-19 248 C-25.16933202 250.38468411 -30.83967931 254.06367653 -36.4609375 257.5078125 C-40.52759885 259.89775809 -44.75094447 261.95683713 -49 264 C-49 264.66 -49 265.32 -49 266 C-40.72476987 268.74951195 -32.64341319 270.81639747 -24 272 C-22.8192952 269.10969565 -21.65799879 266.21196801 -20.5 263.3125 C-20.16613281 262.49587891 -19.83226562 261.67925781 -19.48828125 260.83789062 C-17.18887431 255.11538852 -17.18887431 255.11538852 -17 249 C-17.66 248.67 -18.32 248.34 -19 248 Z M-67.8125 275.125 C-69.40578125 276.09759766 -69.40578125 276.09759766 -71.03125 277.08984375 C-74.44588304 279.28689053 -77.71401027 281.61604667 -81 284 C-83.88299062 285.75712747 -86.83487683 287.38493498 -89.8203125 288.9609375 C-93.91936787 291.17904105 -96.79843819 293.64226445 -100 297 C-101.36856306 298.17421091 -102.74403909 299.3403953 -104.125 300.5 C-108.33764648 304.16472731 -108.33764648 304.16472731 -111 309 C-111 313.12925238 -110.52245158 315.29216237 -108.0625 318.625 C-96.07401514 327.92219234 -82.67107158 328.49303889 -68 327 C-63.46586153 325.92019837 -59.73953499 323.75099704 -56 321 C-55.37222656 320.54753906 -54.74445313 320.09507812 -54.09765625 319.62890625 C-52.29330795 318.25331076 -52.29330795 318.25331076 -50 316 C-49.278125 315.34 -48.55625 314.68 -47.8125 314 C-44.56476782 310.41629552 -42.67372713 306.50618843 -41 302 C-40.34 302 -39.68 302 -39 302 C-38.61328125 301.28714844 -38.2265625 300.57429688 -37.828125 299.83984375 C-37.04695313 298.40318359 -37.04695313 298.40318359 -36.25 296.9375 C-35.70601563 295.93589844 -35.16203125 294.93429687 -34.6015625 293.90234375 C-33.31602813 291.57270464 -31.98997025 289.2831337 -30.625 287 C-28.76185843 284.12899335 -28.76185843 284.12899335 -29 281 C-30.64742187 280.59974609 -30.64742187 280.59974609 -32.328125 280.19140625 C-37.50457788 278.89729303 -42.6245933 277.41889392 -47.75 275.9375 C-49.59878438 275.40434434 -51.4477364 274.87176956 -53.296875 274.33984375 C-54.10479492 274.10644287 -54.91271484 273.87304199 -55.74511719 273.63256836 C-56.48922852 273.4238208 -57.23333984 273.21507324 -58 273 C-58.69988037 272.78142334 -59.39976074 272.56284668 -60.12084961 272.33764648 C-63.26249624 271.77315418 -65.17323644 273.50552891 -67.8125 275.125 Z " fill="#A1A1A1" transform="translate(367,32)"/>
<path d="M0 0 C2.71133331 0.87045878 4.02838081 1.61955184 5.94921875 3.69921875 C8.45116229 9.177452 7.89956667 15.18405163 7 21 C5.76823961 24.13232819 4.13581921 26.42606403 2 29 C1.26072415 30.16028719 0.53067234 31.3265335 -0.1875 32.5 C-0.785625 33.325 -1.38375 34.15 -2 35 C-2.66 35 -3.32 35 -4 35 C-4 35.66 -4 36.32 -4 37 C-10.80178824 42.89816903 -19.68218281 46.74048868 -28.796875 46.27734375 C-42.1078265 44.60167432 -42.1078265 44.60167432 -46.75 39.9375 C-49.35973714 36.26997 -49.74858565 32.97878471 -49.453125 28.546875 C-47.63820029 18.34574645 -40.63025804 9.67647579 -33 3 C-28.43282843 0.66566787 -24.93806599 1.02839575 -20.05078125 1.90625 C-13.87730542 2.18846604 -7.17895136 -0.79597666 0 0 Z M-30.30078125 19.765625 C-34.23342782 24.93682922 -35.39078471 28.48692144 -35 35 C-32.61645773 36.41522823 -30.86964064 37.18035668 -28.09765625 36.60546875 C-19.03516653 33.35271332 -11.66622954 27.27489287 -6.78125 18.9140625 C-5.66699779 16.18414458 -5.74675646 13.91230076 -6 11 C-7.96058796 8.61901696 -7.96058796 8.61901696 -11.625 8.625 C-20.07003691 8.91463123 -25.0815291 13.4902177 -30.30078125 19.765625 Z " fill="#A1A1A1" transform="translate(318,224)"/>
<path d="M0 0 C3.5625 1.5 3.5625 1.5 6 3 C6 4.98 6 6.96 6 9 C4.7315625 8.7834375 4.7315625 8.7834375 3.4375 8.5625 C-0.03593149 7.9941203 -3.51445662 7.48797607 -7 7 C-7.33 8.32 -7.66 9.64 -8 11 C-7.16855469 11.15855469 -6.33710938 11.31710937 -5.48046875 11.48046875 C-3.85044922 11.83044922 -3.85044922 11.83044922 -2.1875 12.1875 C-0.56908203 12.51814453 -0.56908203 12.51814453 1.08203125 12.85546875 C4 14 4 14 5.890625 16.32421875 C7.05154071 19.12431475 7.30087209 20.64637248 6.9375 23.625 C6.86402344 24.38039063 6.79054688 25.13578125 6.71484375 25.9140625 C5.73174949 28.78276378 4.66467332 29.57439978 2 31 C-1.05859375 31.43359375 -1.05859375 31.43359375 -4.4375 31.4375 C-5.54996094 31.45683594 -6.66242188 31.47617187 -7.80859375 31.49609375 C-11.58938849 30.90838147 -13.25235147 29.59357478 -16 27 C-15.67 25.35 -15.34 23.7 -15 22 C-11.90459558 21.81791739 -9.84429145 22.05294091 -6.875 23.0625 C-3.97705659 24.32277361 -3.97705659 24.32277361 -1 23 C-0.67 22.01 -0.34 21.02 0 20 C-0.83144531 19.81824219 -1.66289062 19.63648438 -2.51953125 19.44921875 C-3.60621094 19.19785156 -4.69289063 18.94648438 -5.8125 18.6875 C-6.89144531 18.44386719 -7.97039062 18.20023437 -9.08203125 17.94921875 C-11.98927887 17.0034876 -13.22643308 16.43791306 -15 14 C-16.00305755 10.13106373 -16.3820015 7.90474039 -14.8125 4.1875 C-10.81576983 -0.63613986 -5.88946651 -0.70185352 0 0 Z " fill="#A6A6A6" transform="translate(469,282)"/>
<path d="M0 0 C0.94875 0 1.8975 0 2.875 0 C3.57625 0 4.2775 0 5 0 C6.61686074 1.61686074 6.12989349 3.3907615 6.1328125 5.62109375 C6.13410156 6.55630859 6.13539063 7.49152344 6.13671875 8.45507812 C6.13285156 9.43927734 6.12898438 10.42347656 6.125 11.4375 C6.13080078 12.90799805 6.13080078 12.90799805 6.13671875 14.40820312 C6.13542969 15.34470703 6.13414062 16.28121094 6.1328125 17.24609375 C6.13168457 18.10904053 6.13055664 18.9719873 6.12939453 19.86108398 C6 22 6 22 5 24 C4.030625 23.814375 3.06125 23.62875 2.0625 23.4375 C1.051875 23.293125 0.04125 23.14875 -1 23 C-1.33 23.33 -1.66 23.66 -2 24 C-3.47648876 24.09823996 -4.95775417 24.12973519 -6.4375 24.125 C-7.24058594 24.12757813 -8.04367187 24.13015625 -8.87109375 24.1328125 C-11 24 -11 24 -13 23 C-13 22.34 -13 21.68 -13 21 C-13.66 21 -14.32 21 -15 21 C-18.11506953 16.32739571 -17.59135029 11.46999016 -17 6 C-15.11883274 2.38237066 -13.80989295 1.39594766 -10.1875 -0.375 C-6.47730367 -1.10248948 -3.70356967 -0.6733763 0 0 Z M-10 8 C-10.9584171 10.80152691 -11.18147911 12.40606836 -10.3125 15.25 C-9.12612 17.13913484 -9.12612 17.13913484 -7.0625 17.8125 C-4.80257287 18.15686809 -4.80257287 18.15686809 -2 17 C-0.49609918 14.81934382 0.0539268 13.5931948 -0.1875 10.9375 C-1.13466016 8.67888731 -2.06022855 7.49213189 -4 6 C-7.18490007 5.7226499 -7.18490007 5.7226499 -10 8 Z " fill="#A1A1A1" transform="translate(495,289)"/>
<path d="M0 0 C0.99 -0.33 1.98 -0.66 3 -1 C3.66 -0.67 4.32 -0.34 5 0 C5 7.59 5 15.18 5 23 C-1.81267363 24.36253473 -8.97562587 25.77904361 -15.1875 22.125 C-18.28229746 16.78914231 -18.3431819 11.64740323 -17.5625 5.625 C-13.46376992 -1.26086654 -7.14475413 -1.3320728 0 0 Z M-9.6875 7.25 C-11.19529964 9.26039952 -11.7722688 10.49495679 -12 13 C-11.5 15.25 -11.5 15.25 -10 17 C-7.59117313 17.99843776 -7.59117313 17.99843776 -5 18 C-1.75821957 16.29705826 -1.75821957 16.29705826 -1.125 13.125 C-0.74920193 10.02401852 -0.74920193 10.02401852 -2.1875 7.625 C-4.73120044 5.34444098 -6.89358752 5.1804352 -9.6875 7.25 Z " fill="#A3A3A3" transform="translate(567,289)"/>
<path d="M0 0 C3.5 1.1875 3.5 1.1875 5.5 3.1875 C6.89948555 6.92536648 6.6476184 10.87689873 6.625 14.8125 C6.63080078 15.8334375 6.63080078 15.8334375 6.63671875 16.875 C6.62672061 21.93405878 6.62672061 21.93405878 5.5 24.1875 C3.85 24.1875 2.2 24.1875 0.5 24.1875 C-1.65059309 20.65563168 -1.8797728 17.52462007 -2.125 13.4375 C-2.23714844 11.68179687 -2.23714844 11.68179687 -2.3515625 9.890625 C-2.40054688 8.99859375 -2.44953125 8.1065625 -2.5 7.1875 C-4.15 7.1875 -5.8 7.1875 -7.5 7.1875 C-7.83 12.4675 -8.16 17.7475 -8.5 23.1875 C-10.15 23.5175 -11.8 23.8475 -13.5 24.1875 C-15.94986932 21.73763068 -15.75631311 21.050422 -15.765625 17.6875 C-15.76820313 16.800625 -15.77078125 15.91375 -15.7734375 15 C-15.76183594 13.6078125 -15.76183594 13.6078125 -15.75 12.1875 C-15.75773438 11.259375 -15.76546875 10.33125 -15.7734375 9.375 C-15.77085937 8.488125 -15.76828125 7.60125 -15.765625 6.6875 C-15.76336914 5.8728125 -15.76111328 5.058125 -15.75878906 4.21875 C-15.5 2.1875 -15.5 2.1875 -13.5 0.1875 C-11.625 0.02734375 -11.625 0.02734375 -9.5 0.125 C-5.78414301 0.28210425 -3.67693821 -0.85357494 0 0 Z " fill="#ABABAB" transform="translate(540.5,288.8125)"/>
<path d="M0 0 C0.69222656 0.17144531 1.38445313 0.34289062 2.09765625 0.51953125 C3.9375 1.1875 3.9375 1.1875 5.9375 3.1875 C5.6075 4.8375 5.2775 6.4875 4.9375 8.1875 C1.6375 7.5275 -1.6625 6.8675 -5.0625 6.1875 C-5.0625 6.8475 -5.0625 7.5075 -5.0625 8.1875 C-3.804375 8.455625 -2.54625 8.72375 -1.25 9 C1.04739219 9.59772859 2.86329432 10.14575931 4.9375 11.3125 C6.57528878 14.38335396 6.79899375 17.82292597 5.9375 21.1875 C3.83077085 23.30862593 2.45803673 24.10241227 -0.5 24.5859375 C-1.345625 24.57820313 -2.19125 24.57046875 -3.0625 24.5625 C-3.908125 24.57023437 -4.75375 24.57796875 -5.625 24.5859375 C-8.54757849 24.10820832 -9.94338271 23.23371188 -12.0625 21.1875 C-12.3125 18.5 -12.3125 18.5 -12.0625 16.1875 C-10.375 15.5 -10.375 15.5 -8.0625 15.1875 C-5.4375 16.625 -5.4375 16.625 -3.0625 18.1875 C-2.4025 18.1875 -1.7425 18.1875 -1.0625 18.1875 C-0.7325 17.5275 -0.4025 16.8675 -0.0625 16.1875 C-0.67738281 16.00574219 -1.29226563 15.82398438 -1.92578125 15.63671875 C-2.73402344 15.38535156 -3.54226563 15.13398438 -4.375 14.875 C-5.17550781 14.63136719 -5.97601562 14.38773437 -6.80078125 14.13671875 C-9.21094555 13.12519902 -10.45616939 12.23468475 -12.0625 10.1875 C-12.5625 7.25 -12.5625 7.25 -12.0625 4.1875 C-8.287443 0.412443 -5.24773164 -1.36342934 0 0 Z " fill="#A2A2A2" transform="translate(587.0625,288.8125)"/>
<path d="M0 0 C1.32 0.33 2.64 0.66 4 1 C4 11.56 4 22.12 4 33 C2.35 33 0.7 33 -1 33 C-3.11457422 28.77085156 -2.18585828 23.22100194 -2.18530273 18.56884766 C-2.18749158 16.50792873 -2.20565983 14.4475431 -2.22460938 12.38671875 C-2.22750977 10.44732422 -2.22750977 10.44732422 -2.23046875 8.46875 C-2.23457764 7.27701172 -2.23868652 6.08527344 -2.24291992 4.85742188 C-2 2 -2 2 0 0 Z " fill="#9D9D9D" transform="translate(507,280)"/>
<path d="M0 0 C0.69222656 0.17144531 1.38445313 0.34289062 2.09765625 0.51953125 C3.9375 1.1875 3.9375 1.1875 5.9375 3.1875 C5.6075 4.8375 5.2775 6.4875 4.9375 8.1875 C1.6375 7.5275 -1.6625 6.8675 -5.0625 6.1875 C-5.0625 6.8475 -5.0625 7.5075 -5.0625 8.1875 C-4.4025 8.1875 -3.7425 8.1875 -3.0625 8.1875 C-3.26875 8.80625 -3.475 9.425 -3.6875 10.0625 C-3.81125 10.76375 -3.935 11.465 -4.0625 12.1875 C-3.4025 12.8475 -2.7425 13.5075 -2.0625 14.1875 C-5.59927664 14.50902515 -7.4587104 14.6006192 -10.4375 12.5625 C-12.0625 10.1875 -12.0625 10.1875 -12.625 7.1875 C-12.0625 4.1875 -12.0625 4.1875 -9.75 1.875 C-6.10054148 -0.41652047 -4.10515594 -1.06657323 0 0 Z " fill="#A1A1A1" transform="translate(587.0625,288.8125)"/>
<path d="M0 0 C1.65 0.33 3.3 0.66 5 1 C5 8.26 5 15.52 5 23 C3.35 23.33 1.7 23.66 0 24 C-1.65394117 22.34605883 -1.12999683 20.39684587 -1.1328125 18.125 C-1.13410156 17.14015625 -1.13539063 16.1553125 -1.13671875 15.140625 C-1.13285156 14.10421875 -1.12898437 13.0678125 -1.125 12 C-1.13080078 10.44539063 -1.13080078 10.44539063 -1.13671875 8.859375 C-1.13542969 7.87453125 -1.13414062 6.8896875 -1.1328125 5.875 C-1.13168457 4.96492188 -1.13055664 4.05484375 -1.12939453 3.1171875 C-1 1 -1 1 0 0 Z " fill="#9E9E9E" transform="translate(517,289)"/>
<path d="M0 0 C1.32 0 2.64 0 4 0 C3.7834375 1.299375 3.7834375 1.299375 3.5625 2.625 C2.68046473 8.71104335 2.39975269 14.86762363 2 21 C0.34385343 21.38218767 -1.32457024 21.71395102 -3 22 C-4 21 -4 21 -4.11352539 19.05053711 C-4.10567017 17.8015564 -4.10567017 17.8015564 -4.09765625 16.52734375 C-4.09443359 15.62822266 -4.09121094 14.72910156 -4.08789062 13.80273438 C-4.07951172 12.85720703 -4.07113281 11.91167969 -4.0625 10.9375 C-4.05798828 9.98810547 -4.05347656 9.03871094 -4.04882812 8.06054688 C-4.0370011 5.70696935 -4.02052025 3.35351523 -4 1 C-3.01 1.33 -2.02 1.66 -1 2 C-0.67 1.34 -0.34 0.68 0 0 Z " fill="#979797" transform="translate(530,291)"/>
<path d="M0 0 C4.10305177 -0.24135599 7.16102296 0.58124761 11 2 C14.32604951 3.10868317 17.53058454 3.54177532 21 4 C21 4.66 21 5.32 21 6 C17.75505811 9.24494189 15.0417787 9.43232164 10.5625 9.4375 C9.45003906 9.45683594 8.33757812 9.47617187 7.19140625 9.49609375 C3.41061151 8.90838147 1.74764853 7.59357478 -1 5 C-0.67 3.35 -0.34 1.7 0 0 Z " fill="#AAAAAA" transform="translate(454,304)"/>
<path d="M0 0 C0 0.99 0 1.98 0 3 C0.66 3 1.32 3 2 3 C2 7 2 7 0.75 8.625 C-1.12795915 10.10053934 -2.76011534 11.16004325 -5 12 C-5.99 11.67 -6.98 11.34 -8 11 C-8 10.34 -8 9.68 -8 9 C-10.31 8.34 -12.62 7.68 -15 7 C-11.19791273 3.69383716 -5.16418515 0 0 0 Z " fill="#A9A9A9" transform="translate(409,242)"/>
<path d="M0 0 C1.4370809 -0.05422947 2.87475462 -0.09289723 4.3125 -0.125 C5.11300781 -0.14820313 5.91351563 -0.17140625 6.73828125 -0.1953125 C9 0 9 0 12 2 C12.1875 5.125 12.1875 5.125 12 8 C7.23649415 7.28547412 2.65798604 6.20465156 -2 5 C-1.34 4.67 -0.68 4.34 0 4 C0 2.68 0 1.36 0 0 Z " fill="#9B9B9B" transform="translate(463,283)"/>
<path d="M0 0 C0.66 0.33 1.32 0.66 2 1 C1.34 2.98 0.68 4.96 0 7 C-1.65 7.33 -3.3 7.66 -5 8 C-4.34 6.35 -3.68 4.7 -3 3 C-4.32 3 -5.64 3 -7 3 C-7.33 3.99 -7.66 4.98 -8 6 C-8.66 5.67 -9.32 5.34 -10 5 C-10.33 10.94 -10.66 16.88 -11 23 C-11.33 23 -11.66 23 -12 23 C-12.05790353 19.70840684 -12.09356261 16.41694397 -12.125 13.125 C-12.14175781 12.18785156 -12.15851562 11.25070312 -12.17578125 10.28515625 C-12.18544922 8.94130859 -12.18544922 8.94130859 -12.1953125 7.5703125 C-12.20578613 6.74289551 -12.21625977 5.91547852 -12.22705078 5.06298828 C-12 3 -12 3 -10 1 C-8.125 0.83984375 -8.125 0.83984375 -6 0.9375 C-2.88158436 1.09598803 -2.88158436 1.09598803 0 0 Z " fill="#C3C3C3" transform="translate(537,288)"/>
<path d="M0 0 C-0.66 1.65 -1.32 3.3 -2 5 C-2.66 5 -3.32 5 -4 5 C-4.33 5.66 -4.66 6.32 -5 7 C-6.093125 6.79375 -7.18625 6.5875 -8.3125 6.375 C-12.0838401 5.59653475 -12.0838401 5.59653475 -15 8 C-14.02839102 4.7318607 -13.37551865 3.26960313 -10.5625 1.25 C-6.48220684 -0.74038691 -4.37169911 -1.06338627 0 0 Z " fill="#ADADAD" transform="translate(493,289)"/>
<path d="M0 0 C2.625 0.375 2.625 0.375 5 1 C5 2.98 5 4.96 5 7 C3.02 7 1.04 7 -1 7 C-1.625 4.625 -1.625 4.625 -2 2 C-1.34 1.34 -0.68 0.68 0 0 Z " fill="#ACACAC" transform="translate(517,281)"/>
<path d="M0 0 C2.125 0.375 2.125 0.375 4 1 C3.67 1.66 3.34 2.32 3 3 C2.01 3 1.02 3 0 3 C-0.33 12.24 -0.66 21.48 -1 31 C-1.33 31 -1.66 31 -2 31 C-2.04939115 26.90661348 -2.08571501 22.81334202 -2.10986328 18.71972656 C-2.11992877 17.32679219 -2.13358234 15.93387898 -2.15087891 14.54101562 C-2.1751022 12.5404564 -2.18540814 10.53974385 -2.1953125 8.5390625 C-2.20578613 7.33459473 -2.21625977 6.13012695 -2.22705078 4.88916016 C-2 2 -2 2 0 0 Z " fill="#C6C6C6" transform="translate(507,280)"/>
<path d="M0 0 C1.32 0.66 2.64 1.32 4 2 C3.67 3.65 3.34 5.3 3 7 C-1.455 6.01 -1.455 6.01 -6 5 C-6 4.67 -6 4.34 -6 4 C-4.35 4 -2.7 4 -1 4 C-0.67 2.68 -0.34 1.36 0 0 Z " fill="#B8B8B8" transform="translate(589,290)"/>
<path d="M0 0 C0.33 0 0.66 0 1 0 C1.02894547 3.45831586 1.04678 6.91660072 1.0625 10.375 C1.07087891 11.35984375 1.07925781 12.3446875 1.08789062 13.359375 C1.09111328 14.30039062 1.09433594 15.24140625 1.09765625 16.2109375 C1.10289307 17.08024902 1.10812988 17.94956055 1.11352539 18.84521484 C1 21 1 21 0 23 C-1.32 23 -2.64 23 -4 23 C-4 22.34 -4 21.68 -4 21 C-2.68 20.67 -1.36 20.34 0 20 C0 13.4 0 6.8 0 0 Z " fill="#B0B0B0" transform="translate(500,290)"/>
<path d="M0 0 C1.65 0 3.3 0 5 0 C5 1.32 5 2.64 5 4 C4 5 4 5 1.4375 5.0625 C0.2309375 5.0315625 0.2309375 5.0315625 -1 5 C-0.67 3.35 -0.34 1.7 0 0 Z " fill="#A1A1A1" transform="translate(454,304)"/>
<path d="M0 0 C2.46800047 1.15173355 4.04783565 2.04783565 6 4 C5.01 5.485 5.01 5.485 4 7 C-0.875 5.25 -0.875 5.25 -2 3 C-1.34 2.34 -0.68 1.68 0 1 C0 0.67 0 0.34 0 0 Z " fill="#A7A7A7" transform="translate(577,306)"/>
<path d="M0 0 C2.475 0.99 2.475 0.99 5 2 C5 3.98 5 5.96 5 8 C3.68 7.67 2.36 7.34 1 7 C0.67 4.69 0.34 2.38 0 0 Z " fill="#ACACAC" transform="translate(470,283)"/>
<path d="M0 0 C0.75 1.6875 0.75 1.6875 1 4 C-0.8125 6.75 -0.8125 6.75 -3 9 C-3.66 9 -4.32 9 -5 9 C-3.90931332 5.22454612 -3.0916909 2.52956528 0 0 Z " fill="#B5B5B5" transform="translate(335,228)"/>
<path d="M0 0 C2.475 0.99 2.475 0.99 5 2 C4 5 4 5 1 7 C0 6 0 6 -0.0625 2.9375 C-0.041875 1.968125 -0.02125 0.99875 0 0 Z " fill="#B2B2B2" transform="translate(575,293)"/>
<path d="M0 0 C0.66 1.32 1.32 2.64 2 4 C0.35 4.33 -1.3 4.66 -3 5 C-3.33 4.01 -3.66 3.02 -4 2 C-2.68 1.34 -1.36 0.68 0 0 Z " fill="#A9A9A9" transform="translate(530,308)"/>
<path d="M0 0 C2.31 0.33 4.62 0.66 7 1 C6.360625 1.103125 5.72125 1.20625 5.0625 1.3125 C4.0415625 1.6528125 4.0415625 1.6528125 3 2 C2.67 2.99 2.34 3.98 2 5 C1.01 4.34 0.02 3.68 -1 3 C-0.67 2.01 -0.34 1.02 0 0 Z " fill="#B3B3B3" transform="translate(527,289)"/>
<path d="M0 0 C-0.66 1.65 -1.32 3.3 -2 5 C-5 5 -5 5 -8 3 C-2.25 0 -2.25 0 0 0 Z " fill="#B1B1B1" transform="translate(460,256)"/>
<path d="M0 0 C0.33 0.66 0.66 1.32 1 2 C2.32 2 3.64 2 5 2 C5.33 1.34 5.66 0.68 6 0 C6 1.65 6 3.3 6 5 C2 5 2 5 0 4 C0 2.68 0 1.36 0 0 Z " fill="#9A9A9A" transform="translate(56,308)"/>
<path d="M0 0 C1.98 0.495 1.98 0.495 4 1 C4 1.99 4 2.98 4 4 C3.34 4 2.68 4 2 4 C1.01 4.33 0.02 4.66 -1 5 C-0.67 3.35 -0.34 1.7 0 0 Z " fill="#979797" transform="translate(576,304)"/>
<path d="M0 0 C0.33 0.66 0.66 1.32 1 2 C1.66 2 2.32 2 3 2 C2.79375 2.61875 2.5875 3.2375 2.375 3.875 C2.25125 4.57625 2.1275 5.2775 2 6 C2.66 6.66 3.32 7.32 4 8 C2.68 8 1.36 8 0 8 C0 5.36 0 2.72 0 0 Z " fill="#949494" transform="translate(581,295)"/>
<path d="M0 0 C2.75 0.25 2.75 0.25 5 1 C1.81237635 3.12508244 -0.26512223 3.5020163 -4 4 C-2.3125 1.9375 -2.3125 1.9375 0 0 Z " fill="#B4B4B4" transform="translate(200,210)"/>
<path d="M0 0 C-0.33 1.32 -0.66 2.64 -1 4 C-2.65 4.33 -4.3 4.66 -6 5 C-6 4.01 -6 3.02 -6 2 C-2.25 0 -2.25 0 0 0 Z " fill="#9B9B9B" transform="translate(127,162)"/>
</svg>
